# xmcd CD database file
#
# Track frame offsets:
#	150
#	23107
#	41055
#	60514
#	84518
#	106575
#	127282
#	146782
#	167714
#	193296
#
# Disc length: 2786 seconds
#
# Revision: 0
# Processed by: cddbd v1.5.1PL0 Copyright (c) Steve Scherf et al.
# Submitted via: CDex 1.51
#
DISCID=8c0ae00a
DTITLE=Finis Tasby - Blues A Tribute To John Lee Hooker
DYEAR=2002
DGENRE=Blues
TTITLE0=Sex On My Mind
TTITLE1=Little Red Rooster
TTITLE2=Get Drunk and Be Somebody
TTITLE3=Since I Met You Baby
TTITLE4=Boogie Children
TTITLE5=Keep On Loving You
TTITLE6=You Don't Have To Worry
TTITLE7=Blue Shadow
TTITLE8=Cummin Prison
TTITLE9=Going To Virginia
EXTD=YEAR: 2002
EXTT0=
EXTT1=
EXTT2=
EXTT3=
EXTT4=
EXTT5=
EXTT6=
EXTT7=
EXTT8=
EXTT9=
PLAYORDER=
